<svg xmlns="http://www.w3.org/2000/svg" viewBox="68.1517474075643 49.99999999999997 438.6965051848714 474.9973695485893"><rect height="100%" width="100%" x="68.1517474075643" y="49.99999999999997" fill="rgba(214, 213, 201, 1)"/> <g transform="rotate(0 287.5 263.3035534229548)"><svg xmlns="http://www.w3.org/2000/svg" xmlns:xlink="http://www.w3.org/1999/xlink" id="Layer_2" dataName="Layer 2" viewBox="0 -0.000008575152605772018 38.58283996582031 37.021236419677734" height="286.60710684590964" width="298.6965051848714" y="119.99999999999997" x="138.1517474075643" preserveAspectRatio="xMinYMin" style="overflow: visible;"><linearGradient id="linear-gradient" x1="0" y1="18.51843" x2="13.14411" y2="18.51843" gradientUnits="userSpaceOnUse" style="fill: #002b5c; fill-opacity: 1;"><stop offset=".3447" stop-color="#fa383e"></stop><stop offset="1" stop-color="#ee7c22"></stop></linearGradient><path class="cls-1" d="M0,.01563h13.13548c0,.13543-.00001.25935,0,.38326.00079,7.59718-.01039,15.1944.00859,22.79154.00706,2.82738-1.04644,5.14723-3.18574,6.96908-2.57936,2.1966-5.18007,4.36813-7.77144,6.55062-.13103.11036-.26115.2218-.42715.3111.05011-.08108.0954-.16565.15105-.24273,1.23928-1.71637,1.87497-3.61413,1.86969-5.74958-.01918-7.75854-.02613-15.51722.0014-23.27571.01088-3.06706-1.2377-5.49943-3.4948-7.484C.20906.20059.13132.13163,0,.01563Z" style="fill: #000000; fill-opacity: 1;"></path><path class="cls-2" d="M38.58284,34.9869c-.10319.01065-.15314.02028-.2031.02032-2.8728.00229-5.74605.03574-8.61826-.00442-2.44433-.03418-4.45562-1.06832-6.09019-2.86427-2.41865-2.65746-4.83717-5.31502-7.25615-7.97217-.16546-.18176-.33431-.36044-.52338-.56402.99447-.44242,1.96162-.87522,2.93084-1.30334,1.82753-.80723,3.65871-1.60626,5.48135-2.42435.23049-.10346.35159-.06916.51374.10788,2.76823,3.0225,5.54358,6.03847,8.3158,9.05732,1.74632,1.90168,3.49007,3.80571,5.23488,5.70879.05801.06327.1149.12758.21446.23825Z" style="fill: #A32B29; fill-opacity: 1;"></path><path class="cls-2" d="M15.53549.00388c.0831,0,.16619-.00004.24929,0,2.55034.00129,5.10085-.01456,7.65097.00979,1.7639.01684,3.42569.45623,4.92406,1.41103,1.67658,1.06835,2.60111,2.64979,2.99809,4.55963.53299,2.56413.18129,4.98383-1.26782,7.19958-.75602,1.15599-1.83218,1.9511-3.03456,2.5893-1.70385.90436-3.52787,1.51664-5.33172,2.17635-.81383.29763-1.63655.57097-2.48485.79582.09067-.04957.18372-.09527.27165-.14932.93212-.57289,1.92569-1.06723,2.78337-1.73582,2.66282-2.07574,3.13179-5.25049,1.78115-8.21764-.76748-1.68604-2.00079-3.02117-3.3226-4.28149-1.60671-1.53197-3.33248-2.91982-5.13114-4.21868-.0341-.02463-.06758-.05011-.10135-.0752.00515-.02112.0103-.04224.01545-.06336Z" style="fill: #A32B29; fill-opacity: 1;"></path></svg></g> <g transform="rotate(0 287.4997597756122 430.8023698537651)"><svg xmlns="http://www.w3.org/2000/svg" y="406.60737015894085" viewBox="-1.190000057220459 9.319999694824219 255.8800048828125 48.38999938964844" x="159.55975733420593" height="48.38999938964844" width="255.8800048828125" style="overflow: visible;"><g fill="#090F0C" fill-opacity="1" style=""><path d="M19.36 13.94L19.36 13.94Q19.91 13.94 20.07 14.42L20.07 14.42L20.15 14.62Q18.44 14.62 17.62 16.67Q16.81 18.72 16.37 22.70L16.37 22.70Q19.75 23.34 21.55 26.68L21.55 26.68Q24.10 25.05 25.51 22.30Q26.92 19.56 26.92 16.89Q26.92 14.22 24.91 12.27Q22.90 10.32 19.16 10.32L19.16 10.32Q11.95 10.32 8.01 15.45L8.01 15.45Q5.26 19.08 5.26 23.18Q5.26 27.28 7.37 28.72L7.37 28.72Q8.24 29.27 9.28 29.27L9.28 29.27Q8.88 30.19 8.05 30.19L8.05 30.19Q5.06 30.19 3.86 27.04L3.86 27.04Q3.27 25.53 3.27 23.60Q3.27 21.67 4.14 19.28L4.14 19.28Q5.97 14.06 10.75 11.39L10.75 11.39Q14.42 9.32 19.16 9.32L19.16 9.32Q22.54 9.32 24.89 10.39Q27.24 11.47 28.28 13.14L28.28 13.14Q29.39 15.01 29.39 17.15Q29.39 19.28 28.58 21.23Q27.76 23.18 26.07 25.03Q24.37 26.88 22.10 28.00L22.10 28.00Q23.10 30.59 23.90 37.64L23.90 37.64Q24.17 39.91 24.65 42.06L24.65 42.06Q25.69 46.60 29.07 46.60L29.07 46.60Q28.99 47.31 28.04 47.31L28.04 47.31Q23.18 47.31 22.14 42.69L22.14 42.69Q21.63 40.50 21.49 38.27Q21.35 36.04 21.23 33.20Q21.11 30.35 20.67 28.60L20.67 28.60Q18.48 29.39 16.01 29.39L16.01 29.39L15.65 29.39Q14.54 38.03 11.87 41.22L11.87 41.22Q10.79 42.54 9.06 43.41Q7.33 44.29 5.24 44.29Q3.15 44.29 1.73 43.57Q0.32 42.85-0.32 41.74L-0.32 41.74Q-1.19 40.11-1.19 38.75Q-1.19 37.40-0.80 36.22Q-0.40 35.05 0.36 33.91Q1.12 32.78 2.35 32.06Q3.58 31.34 5.02 31.34L5.02 31.34Q5.81 31.34 6.13 31.90L6.13 31.90L6.21 32.10Q2.75 32.10 0.92 35.05L0.92 35.05Q-0.12 36.72-0.12 38.47L-0.12 38.47Q-0.12 39.27 0.08 40.11L0.08 40.11Q0.96 43.21 4.46 43.21L4.46 43.21Q6.13 43.21 7.47 42.38Q8.80 41.54 9.66 40.30Q10.51 39.07 11.23 37.04L11.23 37.04Q12.31 33.89 13.14 28.95L13.14 28.95Q11.63 28.44 10.99 27.46Q10.35 26.48 10.35 25.97Q10.35 25.45 10.35 25.25L10.35 25.25Q10.55 24.21 11.57 23.40Q12.59 22.58 14.22 22.54L14.22 22.54Q14.74 19.83 15.29 18.10Q15.85 16.37 16.89 15.15Q17.92 13.94 19.36 13.94ZM15.81 28.36L15.97 28.36Q18.20 28.36 20.31 27.40L20.31 27.40Q19.12 24.25 16.29 23.62L16.29 23.62L15.81 28.36ZM14.06 23.46L14.06 23.46Q12.63 23.58 12.03 24.31Q11.43 25.05 11.43 25.53L11.43 25.53Q11.43 27.16 13.30 27.92L13.30 27.92Q13.78 24.89 14.06 23.46ZM32.06 41.86L32.06 41.86Q28.91 41.86 28.91 37.12L28.91 37.12Q28.91 34.37 30.35 31.10L30.35 31.10Q32.34 26.68 35.41 25.33L35.41 25.33Q36.48 24.89 37.58 24.89Q38.67 24.89 39.31 25.53Q39.95 26.17 39.95 26.96L39.95 26.96Q39.95 27.32 39.57 27.30Q39.19 27.28 39.19 26.92Q39.19 26.56 38.81 26.27Q38.43 25.97 37.72 25.97L37.72 25.97Q35.21 25.97 33.18 30.47L33.18 30.47Q31.26 34.65 31.26 38.39L31.26 38.39Q31.26 40.70 32.28 40.70Q33.30 40.70 34.75 38.97Q36.20 37.24 37.44 34.93L37.44 34.93Q40.11 30.07 40.58 28.68Q41.06 27.28 41.62 27.28L41.62 27.28Q42.61 27.28 42.61 28.95L42.61 28.95Q42.61 29.47 42.50 30.15L42.50 30.15Q41.18 36.52 41.08 37.52Q40.98 38.51 40.98 38.95L40.98 38.95Q40.98 40.86 41.90 40.86L41.90 40.86Q42.93 40.86 44.81 38.11Q46.68 35.37 48.03 32.62L48.03 32.62L49.39 29.87L50.46 29.87Q50.22 30.35 49.84 31.16Q49.47 31.98 48.35 34.07Q47.23 36.16 46.22 37.76Q45.20 39.35 43.95 40.64Q42.69 41.94 41.78 41.94L41.78 41.94Q38.83 41.94 38.83 37.64L38.83 37.64Q38.83 36.20 39.15 34.29L39.15 34.29L38.87 34.29Q34.81 41.86 32.06 41.86ZM60.42 40.74L60.42 40.74Q61.89 40.74 63.25 38.87L63.25 38.87Q65.67 35.45 66.51 29.63L66.51 29.63Q65.24 28.99 64.82 27.92Q64.40 26.84 64.40 26.25L64.40 26.25Q64.40 24.17 65.75 24.17L65.75 24.17Q67.43 24.17 67.43 27.88L67.43 27.88Q67.43 28.28 67.43 28.72L67.43 28.72Q68.02 28.91 68.92 28.91Q69.82 28.91 70.53 28.16Q71.25 27.40 71.25 26.76L71.25 26.76Q71.25 26.60 71.43 26.54Q71.61 26.48 71.81 26.56Q72.01 26.64 72.01 26.80L72.01 26.80Q72.01 27.96 71.03 28.99Q70.06 30.03 68.42 30.03L68.42 30.03Q67.83 30.03 67.35 29.91L67.35 29.91Q66.63 36.20 63.64 39.91L63.64 39.91Q62.09 41.82 60.34 41.82L60.34 41.82Q57.55 41.82 56.59 38.87L56.59 38.87Q54.24 41.82 52.09 41.82L52.09 41.82Q49.07 41.82 48.35 39.75L48.35 39.75Q47.95 38.63 47.95 37.36Q47.95 36.08 48.23 34.53L48.23 34.53Q48.83 31.58 50.54 25.73L50.54 25.73Q50.78 24.89 51.30 24.89L51.30 24.89Q52.01 24.89 52.33 25.89L52.33 25.89Q52.49 26.37 52.49 27.02Q52.49 27.68 52.29 28.40Q52.09 29.11 51.81 30.15Q51.54 31.18 51.34 31.90Q51.14 32.62 50.88 33.65Q50.62 34.69 50.48 35.45Q50.34 36.20 50.24 37.08Q50.14 37.96 50.22 38.57Q50.30 39.19 50.50 39.71L50.50 39.71Q50.90 40.74 52.17 40.74L52.17 40.74Q54.08 40.74 56.28 37.60L56.28 37.60Q56.12 36.64 56.12 35.65L56.12 35.65Q56.12 32.98 57.11 29.95L57.11 29.95Q58.51 25.81 59.94 25.81L59.94 25.81Q61.09 25.81 61.09 27.60L61.09 27.60Q61.09 28.32 60.90 29.27L60.90 29.27Q60.30 32.66 58.27 36.28L58.27 36.28Q58.63 40.74 60.42 40.74ZM58.23 34.25Q59.06 32.54 59.62 30.87Q60.18 29.19 60.24 28.62Q60.30 28.04 60.30 27.64Q60.30 27.24 59.98 27.16L59.98 27.16Q59.30 27.16 58.78 29.37Q58.27 31.58 58.23 34.25L58.23 34.25ZM80.25 9.36L80.25 9.36Q82.04 9.36 82.04 11.75L82.04 11.75Q82.04 12.35 81.92 13.14L81.92 13.14Q81.33 16.93 78.78 20.95L78.78 20.95Q76.95 23.86 75.31 24.61L75.31 24.61Q74.52 28.91 73.92 32.42L73.92 32.42L74.20 32.42Q77.54 24.97 80.97 24.97L80.97 24.97Q82.20 24.97 82.90 25.73Q83.60 26.48 83.60 27.80Q83.60 29.11 82.56 33.55Q81.53 37.99 81.53 39.75L81.53 39.75Q81.53 42.34 82.48 42.34L82.48 42.34Q82.48 42.61 82.12 42.89Q81.76 43.17 81.29 43.17L81.29 43.17Q78.98 43.17 78.98 39.55L78.98 39.55Q78.98 37.32 80.15 32.92Q81.33 28.52 81.33 27.24Q81.33 25.97 80.33 25.97L80.33 25.97Q79.18 25.97 77.78 27.92Q76.39 29.87 75.19 32.90L75.19 32.90Q73.20 37.76 72.21 41.02L72.21 41.02Q71.97 41.82 71.53 41.82L71.53 41.82Q70.81 41.82 70.45 40.94L70.45 40.94Q70.25 40.46 70.25 39.93Q70.25 39.39 70.57 37.94Q70.89 36.48 71.63 32.82Q72.37 29.15 72.88 26.74Q73.40 24.33 74.08 21.33Q74.76 18.32 75.37 16.43Q75.99 14.54 76.79 12.78L76.79 12.78Q78.30 9.36 80.25 9.36ZM81.13 11.83L81.13 11.83Q81.13 10.55 80.41 10.28L80.41 10.28Q78.06 10.28 75.55 23.42L75.55 23.42Q77.14 22.30 78.86 18.96L78.86 18.96Q81.13 14.46 81.13 11.83ZM89.65 41.86L89.65 41.86Q86.50 41.86 86.50 37.12L86.50 37.12Q86.50 34.37 87.94 31.10L87.94 31.10Q89.93 26.68 93.00 25.33L93.00 25.33Q94.07 24.89 95.17 24.89Q96.26 24.89 96.90 25.53Q97.54 26.17 97.54 26.96L97.54 26.96Q97.54 27.32 97.16 27.30Q96.78 27.28 96.78 26.92Q96.78 26.56 96.40 26.27Q96.02 25.97 95.31 25.97L95.31 25.97Q92.80 25.97 90.77 30.47L90.77 30.47Q88.85 34.65 88.85 38.39L88.85 38.39Q88.85 40.70 89.87 40.70Q90.89 40.70 92.34 38.97Q93.79 37.24 95.03 34.93L95.03 34.93Q97.70 30.07 98.17 28.68Q98.65 27.28 99.21 27.28L99.21 27.28Q100.20 27.28 100.20 28.95L100.20 28.95Q100.20 29.47 100.09 30.15L100.09 30.15Q98.77 36.52 98.67 37.52Q98.57 38.51 98.57 38.95L98.57 38.95Q98.57 40.86 99.49 40.86L99.49 40.86Q100.52 40.86 102.40 38.11Q104.27 35.37 105.62 32.62L105.62 32.62L106.98 29.87L108.05 29.87Q107.81 30.35 107.43 31.16Q107.05 31.98 105.94 34.07Q104.82 36.16 103.81 37.76Q102.79 39.35 101.54 40.64Q100.28 41.94 99.37 41.94L99.37 41.94Q96.42 41.94 96.42 37.64L96.42 37.64Q96.42 36.20 96.74 34.29L96.74 34.29L96.46 34.29Q92.40 41.86 89.65 41.86ZM114.98 9.36L114.98 9.36Q116.77 9.36 116.77 11.75L116.77 11.75Q116.77 12.35 116.65 13.14L116.65 13.14Q116.06 16.93 113.51 20.95L113.51 20.95Q111.67 23.86 110.04 24.61L110.04 24.61Q109.25 28.91 108.65 32.42L108.65 32.42L108.93 32.42Q112.27 24.97 115.70 24.97L115.70 24.97Q116.93 24.97 117.63 25.73Q118.33 26.48 118.33 27.80Q118.33 29.11 117.29 33.55Q116.25 37.99 116.25 39.75L116.25 39.75Q116.25 42.34 117.21 42.34L117.21 42.34Q117.21 42.61 116.85 42.89Q116.49 43.17 116.02 43.17L116.02 43.17Q113.71 43.17 113.71 39.55L113.71 39.55Q113.71 37.32 114.88 32.92Q116.06 28.52 116.06 27.24Q116.06 25.97 115.06 25.97L115.06 25.97Q113.90 25.97 112.51 27.92Q111.12 29.87 109.92 32.90L109.92 32.90Q107.93 37.76 106.94 41.02L106.94 41.02Q106.70 41.82 106.26 41.82L106.26 41.82Q105.54 41.82 105.18 40.94L105.18 40.94Q104.98 40.46 104.98 39.93Q104.98 39.39 105.30 37.94Q105.62 36.48 106.36 32.82Q107.09 29.15 107.61 26.74Q108.13 24.33 108.81 21.33Q109.48 18.32 110.10 16.43Q110.72 14.54 111.52 12.78L111.52 12.78Q113.03 9.36 114.98 9.36ZM115.86 11.83L115.86 11.83Q115.86 10.55 115.14 10.28L115.14 10.28Q112.79 10.28 110.28 23.42L110.28 23.42Q111.87 22.30 113.59 18.96L113.59 18.96Q115.86 14.46 115.86 11.83ZM161.74 23.86L161.74 23.86Q165.76 27.36 165.76 33.77L165.76 33.77Q165.76 39.95 161.46 44.05L161.46 44.05Q158.75 46.64 154.99 46.64Q151.22 46.64 150.51 43.29L150.51 43.29Q150.35 42.54 150.35 41.78L150.35 41.78Q150.35 39.19 152.06 36.12L152.06 36.12Q154.25 32.14 157.63 30.59L157.63 30.59Q159.23 29.87 160.78 29.87L160.78 29.87Q161.02 29.87 161.10 30.11Q161.18 30.35 161.08 30.57Q160.98 30.79 160.74 30.79L160.74 30.79Q157.12 30.79 154.17 34.61L154.17 34.61Q151.46 38.15 151.46 41.82L151.46 41.82Q151.46 44.69 153.61 45.32L153.61 45.32Q154.09 45.44 154.69 45.44L154.69 45.44Q156.76 45.44 158.59 43.97L158.59 43.97Q162.06 41.18 163.21 34.93L163.21 34.93Q163.41 33.73 163.41 32.36Q163.41 30.99 163.05 29.47L163.05 29.47Q162.45 26.76 160.78 24.89L160.78 24.89Q156.76 28.83 151.26 28.83L151.26 28.83L150.98 28.83Q149.91 37.76 147.28 41.10L147.28 41.10Q146.16 42.46 144.41 43.37Q142.66 44.29 140.53 44.29Q138.40 44.29 136.98 43.57Q135.57 42.85 134.93 41.74L134.93 41.74Q134.06 40.11 134.06 38.75Q134.06 37.40 134.46 36.22Q134.85 35.05 135.61 33.91Q136.37 32.78 137.60 32.06Q138.84 31.34 140.27 31.34L140.27 31.34Q141.07 31.34 141.39 31.90L141.39 31.90L141.47 32.10Q138.00 32.10 136.17 35.05L136.17 35.05Q135.13 36.72 135.13 38.47L135.13 38.47Q135.13 39.27 135.33 40.11L135.33 40.11Q136.21 43.21 139.71 43.21L139.71 43.21Q142.66 43.21 144.33 40.98L144.33 40.98Q146.16 38.63 146.96 35.53L146.96 35.53Q147.84 32.26 148.47 28.44L148.47 28.44Q146.40 27.76 145.77 26.25L145.77 26.25Q145.53 25.69 145.53 24.93Q145.53 24.17 146.24 23.26L146.24 23.26Q147.32 21.75 149.75 21.15L149.75 21.15Q150.51 17.64 151.62 15.79Q152.74 13.94 154.61 13.94L154.61 13.94Q155.17 13.94 155.32 14.42L155.32 14.42L155.40 14.62Q153.89 14.62 153.09 16.23Q152.30 17.84 151.86 20.87L151.86 20.87Q152.10 20.83 152.62 20.83L152.62 20.83Q156.92 20.83 160.10 22.66L160.10 22.66Q162.22 19.52 162.22 16.37L162.22 16.37Q162.22 14.06 160.64 12.19Q159.07 10.32 155.48 10.32L155.48 10.32Q148.24 10.32 144.01 15.53L144.01 15.53Q140.79 19.48 140.79 24.14L140.79 24.14Q140.79 27.44 142.66 28.72L142.66 28.72Q143.46 29.27 144.53 29.27L144.53 29.27Q144.13 30.19 143.30 30.19L143.30 30.19Q140.35 30.19 139.31 27.12L139.31 27.12Q138.84 25.77 138.84 23.88Q138.84 21.98 139.91 19.36L139.91 19.36Q141.98 14.14 146.88 11.43L146.88 11.43Q150.67 9.32 155.48 9.32L155.48 9.32Q158.51 9.32 160.58 10.28L160.58 10.28Q164.60 12.11 164.60 16.69L164.60 16.69Q164.60 20.35 161.74 23.86ZM159.39 23.66Q156.76 21.75 152.62 21.75L152.62 21.75Q152.62 21.75 151.74 21.79L151.74 21.79Q151.38 24.97 151.10 27.80L151.10 27.80L151.22 27.80Q156.08 27.80 159.39 23.66L159.39 23.66ZM149.55 22.22L149.55 22.22Q146.68 23.18 146.68 25.21L146.68 25.21Q146.68 26.68 148.63 27.40L148.63 27.40Q149.27 23.50 149.55 22.22ZM172.13 36.56L172.13 36.56Q172.13 40.74 174.36 40.74L174.36 40.74Q175.88 40.74 177.19 38.87L177.19 38.87Q179.70 35.37 180.26 29.63L180.26 29.63Q178.86 29.03 178.31 27.68L178.31 27.68Q177.95 26.84 177.95 26.27Q177.95 25.69 178.11 25.25L178.11 25.25Q178.46 24.17 179.42 24.17Q180.38 24.17 180.87 25.39Q181.37 26.60 181.37 28.48L181.37 28.48Q181.37 28.60 181.37 28.76L181.37 28.76Q181.85 28.91 182.79 28.91Q183.72 28.91 184.44 28.16Q185.16 27.40 185.16 26.76L185.16 26.76Q185.16 26.60 185.35 26.54Q185.55 26.48 185.73 26.56Q185.91 26.64 185.91 26.80L185.91 26.80Q185.91 27.96 184.94 28.99Q183.96 30.03 182.33 30.03L182.33 30.03Q181.93 30.03 181.29 29.95L181.29 29.95Q181.05 32.66 180.16 35.31Q179.26 37.96 177.67 39.89Q176.07 41.82 174.24 41.82L174.24 41.82Q170.78 41.82 169.98 38.11L169.98 38.11Q169.78 37.04 169.78 35.92L169.78 35.92Q169.78 33.41 170.94 30.55L170.94 30.55Q172.45 26.80 174.68 25.89L174.68 25.89Q175.84 25.49 176.27 25.77Q176.71 26.05 176.83 26.41L176.83 26.41Q175.00 26.41 173.57 29.83Q172.13 33.26 172.13 36.56ZM187.78 36.56L187.78 36.56Q187.78 40.74 190.01 40.74L190.01 40.74Q191.53 40.74 192.84 38.87L192.84 38.87Q195.35 35.37 195.91 29.63L195.91 29.63Q194.51 29.03 193.96 27.68L193.96 27.68Q193.60 26.84 193.60 26.27Q193.60 25.69 193.76 25.25L193.76 25.25Q194.12 24.17 195.07 24.17Q196.03 24.17 196.53 25.39Q197.02 26.60 197.02 28.48L197.02 28.48Q197.02 28.60 197.02 28.76L197.02 28.76Q197.50 28.91 198.44 28.91Q199.37 28.91 200.09 28.16Q200.81 27.40 200.81 26.76L200.81 26.76Q200.81 26.60 201.01 26.54Q201.21 26.48 201.38 26.56Q201.56 26.64 201.56 26.80L201.56 26.80Q201.56 27.96 200.59 28.99Q199.61 30.03 197.98 30.03L197.98 30.03Q197.58 30.03 196.94 29.95L196.94 29.95Q196.71 32.66 195.81 35.31Q194.91 37.96 193.32 39.89Q191.73 41.82 189.89 41.82L189.89 41.82Q186.43 41.82 185.63 38.11L185.63 38.11Q185.43 37.04 185.43 35.92L185.43 35.92Q185.43 33.41 186.59 30.55L186.59 30.55Q188.10 26.80 190.33 25.89L190.33 25.89Q191.49 25.49 191.93 25.77Q192.36 26.05 192.48 26.41L192.48 26.41Q190.65 26.41 189.22 29.83Q187.78 33.26 187.78 36.56ZM210.33 31.46L210.33 31.46Q211.88 29.19 211.88 27.56Q211.88 25.93 210.80 25.93L210.80 25.93Q209.53 25.93 208.02 28.06Q206.50 30.19 205.31 33.14L205.31 33.14Q203.00 38.83 202.48 41.02L202.48 41.02Q202.24 41.82 201.80 41.82L201.80 41.82Q201.09 41.82 200.73 40.94L200.73 40.94Q200.53 40.46 200.53 39.93Q200.53 39.39 200.85 37.94Q201.17 36.48 201.90 32.82Q202.64 29.15 203.16 26.74Q203.67 24.33 204.35 21.33Q205.03 18.32 205.65 16.43Q206.26 14.54 207.06 12.78L207.06 12.78Q208.57 9.36 210.53 9.36L210.53 9.36Q212.32 9.36 212.32 11.75L212.32 11.75Q212.32 12.35 212.20 13.14L212.20 13.14Q211.60 16.93 209.05 20.95L209.05 20.95Q207.22 23.86 205.59 24.61L205.59 24.61Q205.31 26.09 204.83 28.83Q204.35 31.58 204.15 32.66L204.15 32.66L204.35 32.66Q207.74 24.97 211.24 24.97L211.24 24.97Q213.87 24.97 213.87 27.88L213.87 27.88Q213.87 29.79 212.26 32.02Q210.64 34.25 207.94 34.89L207.94 34.89Q209.29 35.41 210.23 36.70Q211.16 37.99 211.52 39.19L211.52 39.19Q212.44 42.34 213.35 42.34L213.35 42.34Q213.35 42.61 212.99 42.89Q212.64 43.17 212.16 43.17L212.16 43.17Q210.80 43.17 210.03 41.90Q209.25 40.62 209.01 39.11Q208.77 37.60 208.14 36.32Q207.50 35.05 206.38 35.05L206.38 35.05L206.30 35.05Q205.94 35.05 205.79 34.49L205.79 34.49Q208.25 34.49 210.33 31.46ZM211.40 11.83L211.40 11.83Q211.40 10.55 210.68 10.28L210.68 10.28Q208.33 10.28 205.83 23.42L205.83 23.42Q207.42 22.30 209.13 18.96L209.13 18.96Q211.40 14.46 211.40 11.83ZM221.92 17.96L221.92 17.96Q222.83 17.96 222.83 19.20Q222.83 20.43 221.64 21.19L221.64 21.19Q221.04 21.59 220.60 21.59L220.60 21.59Q219.96 21.59 219.84 21.19L219.84 21.19L219.80 21.07Q220.16 21.07 220.32 20.29Q220.48 19.52 220.82 18.74Q221.16 17.96 221.92 17.96ZM219.37 40.86L219.37 40.86Q220.40 40.86 222.27 38.11Q224.15 35.37 225.50 32.62L225.50 32.62L226.85 29.87L227.93 29.87Q227.69 30.35 227.31 31.16Q226.93 31.98 225.82 34.07Q224.70 36.16 223.69 37.76Q222.67 39.35 221.42 40.64Q220.16 41.94 219.25 41.94L219.25 41.94Q216.30 41.94 216.30 38.11L216.30 38.11Q216.30 35.25 217.93 28.79L217.93 28.79Q218.09 28.12 218.19 27.76Q218.29 27.40 218.41 26.82Q218.53 26.25 218.65 25.77L218.65 25.77Q218.85 24.93 219.37 24.93L219.37 24.93Q220.08 24.93 220.40 25.97L220.40 25.97Q220.56 26.45 220.56 27.12Q220.56 27.80 220.40 28.54Q220.24 29.27 219.88 30.71Q219.53 32.14 219.33 33.06Q219.13 33.97 218.89 35.29L218.89 35.29Q218.45 37.48 218.45 39.17Q218.45 40.86 219.37 40.86ZM226.26 41.82L226.26 41.82Q225.14 41.82 225.14 40.11L225.14 40.11Q225.14 39.19 227.37 26.76L227.37 26.76Q227.49 25.93 228.09 25.93L228.09 25.93Q228.81 25.93 229.16 26.96L229.16 26.96Q229.36 27.52 229.36 28.18Q229.36 28.83 229.20 29.59L229.20 29.59L228.57 32.78L228.81 32.78Q232.39 24.73 235.66 24.73L235.66 24.73Q236.93 24.73 237.61 25.51Q238.28 26.29 238.28 27.64Q238.28 28.99 237.21 33.49Q236.13 37.99 236.13 39.75L236.13 39.75Q236.13 42.34 237.09 42.34L237.09 42.34Q237.09 42.61 236.73 42.89Q236.37 43.17 235.89 43.17L235.89 43.17Q233.58 43.17 233.58 39.55L233.58 39.55Q233.58 37.32 234.80 32.80Q236.01 28.28 236.01 27.02Q236.01 25.77 235.02 25.77L235.02 25.77Q233.58 25.77 231.57 29.51Q229.56 33.26 228.35 36.66Q227.13 40.07 226.95 40.94Q226.77 41.82 226.26 41.82ZM253.70 27.28L253.70 27.28Q254.69 27.28 254.69 28.95L254.69 28.95Q254.69 30.15 253.38 35.86Q252.06 41.58 251.03 45.32Q249.99 49.07 249.08 50.88Q248.16 52.69 246.87 54.52Q245.57 56.36 244.02 57.03Q242.47 57.71 240.44 57.71L240.44 57.71Q236.65 57.71 236.65 53.85L236.65 53.85Q236.65 51.58 238.36 48.95L238.36 48.95Q240.83 45.08 244.98 43.85L244.98 43.85Q246.45 43.41 248.04 43.41L248.04 43.41Q248.32 43.41 248.32 43.97Q248.32 44.53 248.04 44.53L248.04 44.53Q243.34 44.53 240.16 48.23L240.16 48.23Q237.81 51.02 237.81 53.61Q237.81 56.20 239.80 56.59L239.80 56.59L240.44 56.63Q243.70 56.63 245.61 53.93L245.61 53.93Q247.56 51.18 248.68 47.00L248.68 47.00Q249.79 42.77 251.55 33.77L251.55 33.77L251.23 33.77Q246.93 41.86 244.14 41.86L244.14 41.86Q240.99 41.86 240.99 37.12L240.99 37.12Q240.99 34.37 242.43 31.10L242.43 31.10Q244.42 26.68 247.48 25.33L247.48 25.33Q248.56 24.89 249.66 24.89Q250.75 24.89 251.39 25.53Q252.02 26.17 252.02 26.96L252.02 26.96Q252.02 27.32 251.65 27.30Q251.27 27.28 251.27 26.92Q251.27 26.56 250.89 26.27Q250.51 25.97 249.79 25.97L249.79 25.97Q247.29 25.97 245.25 30.47L245.25 30.47Q243.34 34.65 243.34 38.39L243.34 38.39Q243.34 40.70 244.34 40.70L244.34 40.70Q245.65 40.70 247.76 37.60L247.76 37.60Q250.95 32.90 252.74 28.40L252.74 28.40Q253.22 27.28 253.70 27.28Z" transform="translate(0, 0)"></path></g></svg></g></svg>